<svg xmlns="http://www.w3.org/2000/svg" xmlns:xlink="http://www.w3.org/1999/xlink" viewBox="0 0 425.39 261.58"><defs><style>.cls-1{fill:#959593;}.cls-2{fill:url(#Dégradé_sans_nom_182);}.cls-3{fill:url(#Dégradé_sans_nom_224);}.cls-4{fill:#10316c;}.cls-5{fill:url(#Dégradé_sans_nom_179);}.cls-6{fill:url(#Dégradé_sans_nom_224-2);}.cls-7{fill:url(#Dégradé_sans_nom_180);}.cls-8{fill:url(#Dégradé_sans_nom_181);}.cls-9{fill:#98bc02;}.cls-10{fill:#305b95;}</style><linearGradient id="Dégradé_sans_nom_182" x1="211.31" y1="58.76" x2="211.05" y2="18.06" gradientUnits="userSpaceOnUse"><stop offset="0" stop-color="#e7e7e7"/><stop offset="0.05" stop-color="#d8dbdf"/><stop offset="0.22" stop-color="#a4b1c2"/><stop offset="0.4" stop-color="#798eaa"/><stop offset="0.57" stop-color="#587298"/><stop offset="0.73" stop-color="#405f8b"/><stop offset="0.88" stop-color="#315383"/><stop offset="1" stop-color="#2c4f80"/></linearGradient><linearGradient id="Dégradé_sans_nom_224" x1="102.3" y1="145.09" x2="140.11" y2="130" gradientUnits="userSpaceOnUse"><stop offset="0" stop-color="#2b5586"/><stop offset="1"/></linearGradient><linearGradient id="Dégradé_sans_nom_179" x1="10.42" y1="104.92" x2="213.52" y2="104.92" gradientUnits="userSpaceOnUse"><stop offset="0" stop-color="#2c4f80"/><stop offset="1" stop-color="#e7e7e7"/></linearGradient><linearGradient id="Dégradé_sans_nom_224-2" x1="252.49" y1="145.17" x2="290.42" y2="130.04" gradientTransform="matrix(-1, 0, 0, 1, 577.11, 0)" xlink:href="#Dégradé_sans_nom_224"/><linearGradient id="Dégradé_sans_nom_180" x1="210.51" y1="104.92" x2="413.61" y2="104.92" gradientUnits="userSpaceOnUse"><stop offset="0" stop-color="#e7e7e7"/><stop offset="1" stop-color="#2c4f80"/></linearGradient><radialGradient id="Dégradé_sans_nom_181" cx="212.75" cy="99.56" r="152.61" gradientTransform="translate(0 -12.43) scale(1 1.22)" gradientUnits="userSpaceOnUse"><stop offset="0" stop-color="#c7c7c7"/><stop offset="0.06" stop-color="#bfbfbf"/><stop offset="1" stop-color="#393837"/></radialGradient></defs><g id="fond"><line class="cls-1" x1="212.11" y1="61.34" x2="213.52" y2="148.5"/></g><g id="avion"><polygon class="cls-2" points="208.79 62.35 211.45 8.22 213.87 63.31 208.79 62.35"/><path class="cls-3" d="M102.27,129.18l-3.15,12a3.35,3.35,0,0,0,3.24,4.21h38.45a3.35,3.35,0,0,0,3.35-3.36V127.58"/><polyline class="cls-4" points="205.02 14.33 211.06 16.23 219.09 15.28"/><g id="gauche"><path class="cls-5" d="M186.67,98.26a.85.85,0,0,1-.48.78c-28.44,13.78-48.37,18.57-63.27,20.84S65.49,128,54.06,130.81s-33,6.6-35.83,7.11a46.78,46.78,0,0,0-7.29,2.68.86.86,0,0,0,.38,1.64c9.71-.44,28.33-3.41,53.41-7.11,28-4.14,112.88-5.24,120.19-5.33a.82.82,0,0,1,.74.43c.46.84,1.47,2.67,2.05,3.63.38.63,11.55,14.73,25.81,14.64l-1.41-87.16C186.56,61.34,186.54,93.68,186.67,98.26Z"/></g><path class="cls-6" d="M324.53,129.18l3.24,12.29a3.12,3.12,0,0,1-3,3.92h-39a3.12,3.12,0,0,1-3.12-3.12V127.58"/><g id="droit"><path class="cls-7" d="M237.36,98.26a.82.82,0,0,0,.48.77c28.44,13.79,48.37,18.58,63.27,20.85S358.53,128,370,130.81s33,6.6,35.82,7.11a46.84,46.84,0,0,1,7.3,2.68.86.86,0,0,1-.38,1.64c-9.72-.44-28.33-3.41-53.41-7.11-28-4.14-112.88-5.25-120.19-5.33a.82.82,0,0,0-.74.43c-.46.84-1.47,2.67-2.05,3.63-.38.63-11.55,14.73-25.81,14.64l1.4-87.16C237.47,61.34,237.48,93.68,237.36,98.26Z"/></g><path class="cls-8" d="M212.16,156.87s12.62-16.25,20-42.88c5.33-19.24-.09-27.33-3.5-30.34a25.47,25.47,0,0,0-4.35-2.52,11.81,11.81,0,0,0-5.17-1.21h-14a11.81,11.81,0,0,0-5.17,1.21,24.9,24.9,0,0,0-4.34,2.52c-3.42,3-8.84,11.1-3.51,30.34,7.36,26.63,20,42.88,20,42.88"/><path class="cls-9" d="M117,225.27c8-.38,16.06-.61,24.08-.9l24.08.11,48.15.2,48.15.21,24.08.1c8,.37,16,.66,24.07,1.1-8,.38-16.06.6-24.08.9l-24.08-.1-48.15-.21-48.15-.2-24.07-.1C133,226,125,225.73,117,225.27Z"/><path class="cls-9" d="M118.08,233.16h1.54L123,240.9c1.11-2.54,2.29-5.2,3.37-7.74h1.55v9.63h-1.41v-6.66c-.93,2.16-1.94,4.52-2.87,6.66h-1.29l-2.82-6.6v6.6h-1.42Z"/><path class="cls-10" d="M136.62,241.75c0,.28.07.78.09,1H135.4l-.06-.49a3.1,3.1,0,0,1-1.93.55c-2.42,0-3.08-1.25-3.08-2.28s1.1-2.4,3.26-2.4a4.82,4.82,0,0,1,1.72.33v-.68a1.69,1.69,0,0,0-1.9-1.7,2.25,2.25,0,0,0-1.72.77l-1.05-.57a3.74,3.74,0,0,1,2.77-1.17c1.16,0,3.21.39,3.21,2.67Zm-5-1.18c0,.69.4,1.32,1.77,1.32a2.59,2.59,0,0,0,1.9-.66V239.4a5.22,5.22,0,0,0-1.72-.27C132.4,239.13,131.64,239.8,131.64,240.57Z"/><path class="cls-10" d="M139.26,242.79V232.61h1.33v5.72l3.6-3.11h1.73l-3.4,2.95,3.26,4.62h-1.45L141.61,239c-.35.32-.65.57-1,.88v2.95Z"/><path class="cls-10" d="M153.8,240.2c0,1.51-1.11,2.65-3.28,2.65-2.76,0-3.42-1.7-3.42-3.85s.84-3.85,3.42-3.85a3,3,0,0,1,3.37,3.32v.77h-5.48c0,1.76.51,2.65,2.11,2.65s2-.81,2-1.69Zm-5.37-1.91h4.18c-.06-1.33-.65-2.17-2.09-2.17S148.47,237,148.43,238.29Z"/><path class="cls-9" d="M160.1,233.16h5.72v1h-4.3v3.89h3.54v1h-3.54v3.68H160.1Z"/><path class="cls-10" d="M174.7,241.51c0,.34.08.92.1,1.28h-1.19l-.16-.75a3.06,3.06,0,0,1-2.28.81c-2.49,0-3.26-1-3.26-3.32v-4.31h1.31v4.18c0,1.68.33,2.49,1.95,2.49,1.26,0,2.21-.52,2.21-2.49v-4.18h1.32Z"/><path class="cls-10" d="M176.64,235.22H178v-1.56h1.31v1.56h2v.95h-2v4c0,1.14,0,1.69.56,1.7a1.09,1.09,0,0,0,.85-.3l.75.74a2.61,2.61,0,0,1-1.6.52c-1.87,0-1.87-1.26-1.87-2.66v-4h-1.34Z"/><path class="cls-10" d="M190.06,241.51c0,.34.09.92.11,1.28H189l-.16-.75a3.07,3.07,0,0,1-2.28.81c-2.49,0-3.27-1-3.27-3.32v-4.31h1.32v4.18c0,1.68.33,2.49,1.95,2.49,1.26,0,2.21-.52,2.21-2.49v-4.18h1.31Z"/><path class="cls-10" d="M192.63,236.5c0-.34-.07-.92-.09-1.28h1.19l.16,1a2.37,2.37,0,0,1,2.12-1.08,3.84,3.84,0,0,1,1.49.33l-.8.83a1.67,1.67,0,0,0-.69-.19c-1.28,0-2.07.52-2.07,2.49v4.18h-1.31Z"/><path class="cls-10" d="M205,240.2c0,1.51-1.11,2.65-3.28,2.65-2.76,0-3.42-1.7-3.42-3.85s.84-3.85,3.42-3.85a3,3,0,0,1,3.37,3.32v.77h-5.48c0,1.76.51,2.65,2.11,2.65s2-.81,2-1.69Zm-5.37-1.91h4.18c-.06-1.33-.65-2.17-2.09-2.17S199.7,237,199.66,238.29Z"/><path class="cls-9" d="M211.33,233.16h1.54l3.35,7.74c1.11-2.54,2.28-5.2,3.37-7.74h1.54v9.63h-1.4v-6.66c-.93,2.16-1.95,4.52-2.88,6.66h-1.28l-2.82-6.6v6.6h-1.42Z"/><path class="cls-10" d="M227,242.85c-3.41,0-3.43-2.75-3.43-3.85s0-3.85,3.43-3.85,3.38,2.75,3.38,3.85S230.4,242.85,227,242.85Zm0-6.73c-2.16,0-2.11,2.14-2.11,2.88s0,2.89,2.11,2.89,2.05-2.14,2.05-2.89S229.15,236.12,227,236.12Z"/><path class="cls-10" d="M232.85,236.5c0-.34-.07-.92-.08-1.28H234l.16,1a2.37,2.37,0,0,1,2.12-1.08,3.84,3.84,0,0,1,1.49.33l-.81.83a1.6,1.6,0,0,0-.68-.19c-1.28,0-2.07.52-2.07,2.49v4.18h-1.32Z"/><path class="cls-10" d="M245.26,240.2c0,1.51-1.11,2.65-3.28,2.65-2.76,0-3.42-1.7-3.42-3.85s.84-3.85,3.42-3.85a3,3,0,0,1,3.37,3.32v.77h-5.48c0,1.76.51,2.65,2.11,2.65s2-.81,2-1.69Zm-5.37-1.91h4.18c-.06-1.33-.65-2.17-2.09-2.17S239.92,237,239.89,238.29Z"/><path class="cls-9" d="M251.56,233.16h5.59v1H253v3.49h3.47v1H253v3h4.3v1h-5.72Z"/><path class="cls-10" d="M266,240.2c0,1.73-1.21,2.65-3,2.65-2.65,0-3.54-1.88-3.54-3.85s.89-3.85,3.54-3.85c1.95,0,3,1.16,3,2.66h-1.28a1.52,1.52,0,0,0-1.72-1.69c-1.65,0-2.23,1-2.23,2.88s.58,2.89,2.23,2.89a1.53,1.53,0,0,0,1.7-1.69Z"/><path class="cls-10" d="M271.45,242.85c-3.4,0-3.42-2.75-3.42-3.85s0-3.85,3.42-3.85,3.39,2.75,3.39,3.85S274.85,242.85,271.45,242.85Zm0-6.73c-2.16,0-2.1,2.14-2.1,2.88s-.06,2.89,2.1,2.89,2.05-2.14,2.05-2.89S273.61,236.12,271.45,236.12Z"/><path class="cls-10" d="M277.22,232.61h1.32v8c0,1.05,0,1.32.23,1.32a.86.86,0,0,0,.51-.16l.72.71a1.85,1.85,0,0,1-1.25.41c-1.53,0-1.53-.83-1.53-2.28Z"/><path class="cls-10" d="M285,242.85c-3.41,0-3.43-2.75-3.43-3.85s0-3.85,3.43-3.85,3.38,2.75,3.38,3.85S288.4,242.85,285,242.85Zm0-6.73c-2.16,0-2.11,2.14-2.11,2.88s-.05,2.89,2.11,2.89,2.05-2.14,2.05-2.89S287.15,236.12,285,236.12Z"/><path class="cls-10" d="M297.38,236.28l0,6.47c0,1.93-1.53,2.69-3.23,2.69a3.74,3.74,0,0,1-2.77-1.17l1.12-.6a2.14,2.14,0,0,0,1.65.81c1.11,0,1.9-.55,1.9-1.71v-.6a3.23,3.23,0,0,1-2.06.68c-3.14,0-3.42-2.75-3.42-3.85s.25-3.85,3.42-3.85a2.78,2.78,0,0,1,2,.66l.07-.59h1.41Zm-3.31-.16c-2,0-2.11,2.07-2.11,2.88,0,.66.07,2.89,2.11,2.89s2.05-2.14,2.05-2.89S296.21,236.12,294.07,236.12Z"/><path class="cls-10" d="M301,233.79a.68.68,0,1,1,0-1.32.68.68,0,1,1,0,1.32Zm.67,9v-7.57h-1.34v7.57Z"/><path class="cls-10" d="M310.68,240.2c0,1.73-1.21,2.65-3,2.65-2.65,0-3.54-1.88-3.54-3.85s.89-3.85,3.54-3.85c1.95,0,3,1.16,3,2.66H309.4a1.52,1.52,0,0,0-1.72-1.69c-1.65,0-2.23,1-2.23,2.88s.58,2.89,2.23,2.89a1.53,1.53,0,0,0,1.7-1.69Z"/><path class="cls-10" d="M118.08,177.22h7.65l16.59,33.52c5.48-11,11.3-22.5,16.69-33.52h7.64v41.67h-7V190.08c-4.6,9.35-9.64,19.59-14.25,28.81h-6.34l-14-28.57v28.57h-7Z"/><path class="cls-10" d="M179.6,177.22h28.33v4.47H186.64v16.85H204.2V203H186.64v15.89h-7Z"/><path class="cls-10" d="M220,177.22h7.65l16.59,33.52c5.48-11,11.3-22.5,16.69-33.52h7.64v41.67h-6.95V190.08c-4.6,9.35-9.64,19.59-14.25,28.81H241l-14-28.57v28.57h-7Z"/><path class="cls-10" d="M281.53,177.22h27.72v4.47H288.57v15.12h17.2v4.46h-17.2v13.16h21.29v4.46H281.53Z"/></g></svg>